**ABCDEFGHIJKLMNOPQRSTUVWXYZabcdefghijklmnopqrstuvwxyz**************************
**PARASOLID !"#$%&'()*+,-./:;<=>?@[\]^_`{|}~0123456789**************************
**PART1;
MC=unknown;
MC_MODEL=unknown;
MC_ID=unknown;
OS=unknown;
OS_RELEASE=unknown;
FRU=Parasolid 30.1.168;
APPL=Onshape;
SITE=unknown;
USER=unknown;
FORMAT=text;
GUISE=transmit;
KEY=BTGapi::writeModels_.xmt;
FILE=BTGapi::writeModels_.xmt;
DATE=2018-03-27T20:20:35 (UTC);
**PART2;
SCH=SCH_3001168_30100;
USFLD_SIZE=0;
**PART3;
**END_OF_HEADER*****************************************************************
T51 : TRANSMIT FILE created by modeller version 300116823 SCH_3001168_30100_1300
6214 0 10 20 CCCCCCCI4 mesh1006 0 I8 polyline1008 0 CCCCCCCCCCA16 mesh_offset_da
ta206 0 Z1 17 0 0 0 0 0 0 0 0 0 1e3 1e-8 0 0 0 1 0 1 2 0 11 255 2 15 0 1 3 4 1 5
 0 5 0 12 34 CCCCCCI4 mesh1006 0 I8 polyline1008 0 CCCCCCCDI5 owner1040 0 CCCCCC
I13 boundary_mesh1006 0 I17 boundary_polyline1008 0 CCCA16 index_map_offset0 0 1
 dA9 index_map82 0 A17 node_id_index_map82 0 A20 schema_embedding_map82 0 A5 chi
ld12 0 A14 lowest_node_id0 0 1 dA16 mesh_offset_data206 0 Z3 974 6 7 0 0 0 0 0 0
 1e3 1e-8 2 8 9 1 0 1 1 10 11 12 13 0 0 14 15 16 0 0 0 0 0 0 0 100 255 4 16 2 0
 0 1067522139062652e-31 -1 2647131743017885e-32 555111512312578e-31 264713174301
7845e-32 1 -1 -1067522139062652e-31 555111512312578e-31 .03691829905815095 -.012
77043142020702 .1195835902392864 1 3 ?11 5 12 0 1 3 17 1 18 2 0 2 100 17 13 5 0
 0 -1067522139062658e-31 -1 635021359121726e-46 0 623169482540881e-46 -1 1 -1067
522139062642e-31 0 -.204869900941849 -.02367043142020705 -.0464164097607136 1 3
 ?11 18 9 0 1 8 19 1 20 5 20 0 12 8 249 21 22 0 0 0 0 0 0 1e3 1e-8 18 0 3 1 0 1
 1 23 24 25 26 0 0 27 28 29 0 0 0 0 0 0 0 100 19 10 18 0 0 1163650584893284e-32
 1.000000000000014 -1093679914417662e-31 -.939692620785916 -264713174301759e-31
 -.342020143325672 -.342020143325672 1067522139062668e-31 .939692620785916 .0551
300990581512 -.0428204314202072 .1365835902392882 1 3 ?11 20 6 0 1 8 30 1 31 18
 0 18 100 30 7 20 0 0 -2193632325410695e-32 1 602695528065162e-31 -.939692620785
909 -123259516440783e-46 -.3420201433256685 -.3420201433256685 -641375184537577e
-31 .939692620785909 -.186658100941849 -.012670431420207 .1365835902392864 1 3 ?
11 31 3 0 1 9 32 1 0 20 0 0 12 9 500 33 34 0 0 0 0 0 0 1e3 1e-8 31 3 0 1 0 1 1 3
5 36 37 38 0 0 39 40 41 0 0 0 0 0 0 0 100 32 4 31 0 0 1 0 0 0 1 0 0 0 1 -.074869
9009418488 -.01267043142020702 .03608359023928645 1 1 ?81 255 1 33 500 42 9 43 0
 0 0 44 70 11 CI9 list_type0 0 1 uI10 notransmit0 0 1 lCCCDCCDI12 finger_index0
 0 1 dI12 finger_block1012 0 CZ34 0 4 T9 0 0 5 20 1 45 45 13 255 35 132 0 9 0 46
 0 0 47 0 51 255 36 412 0 48 49 0 0 +-.12 -.0111 -.0725 0 1 0 .01 0 0 1 30 255 3
7 319 0 40 50 0 0 +-.13 0 .0725 0 1 0 29 255 38 281 0 41 51 0 -.13 -.0111 .0725
 19 8 CCCCCCCA5 owner12 0 Z39 43 0 9 47 0 52 V0 16 255 40 317 53 ?54 0 55 37 0 0
 9 18 255 41 278 56 57 0 58 38 ?9 81 1 56 453 59 41 0 0 60 61 62 17 255 57 0 63
 64 65 41 66 67 0 68 +18 58 274 69 70 41 71 51 ?9 81 1 69 445 59 58 0 0 72 73 74
 17 70 0 75 68 76 58 77 55 0 64 +18 71 270 60 78 58 79 80 ?9 29 51 277 0 58 80 3
8 -.13 -.0111 -.0725 29 80 273 0 71 81 51 -.12 -.0111 .0825 29 81 269 0 79 82 80
 .12 -.0111 .0825 18 79 266 83 84 71 85 81 ?9 29 82 255 0 85 86 81 -.12 -.0111 -
.0825 18 85 252 87 88 79 89 82 ?9 29 86 251 0 89 90 82 .12 -.0111 -.0825 18 89 2
48 91 92 85 93 86 ?9 29 90 227 0 93 94 86 -.12 0 .0825 18 93 224 95 96 89 97 90
 ?9 29 94 223 0 97 98 90 .12 0 .0825 18 97 220 73 99 93 100 94 ?9 29 98 219 0 10
0 101 94 -.13 0 .0725 18 100 216 102 103 97 104 98 ?9 29 101 215 0 104 105 98 -.
13 0 -.0725 18 104 212 72 106 100 107 101 ?9 29 105 211 0 107 108 101 -.12 0 -.0
825 18 107 208 109 110 104 111 105 ?9 29 108 207 0 111 112 105 .12 0 -.0825 18 1
11 204 113 114 107 115 108 ?9 29 112 193 0 115 116 108 .13 -.0111 .0725 18 115 1
90 117 118 111 119 112 ?9 29 116 189 0 119 120 112 .13 -.0111 -.0725 18 119 186
 121 122 115 123 116 ?9 29 120 185 0 123 124 116 .13 0 .0725 18 123 182 125 126
 119 127 120 ?9 29 124 181 0 127 0 120 .13 0 -.0725 18 127 178 128 129 123 0 124
 ?9 81 1 128 440 59 127 0 0 91 121 130 17 129 0 131 132 133 127 114 134 0 135 -1
5 255 131 338 0 136 137 0 17 132 0 131 136 129 119 135 138 0 0 -17 133 0 131 129
 136 111 92 139 0 0 -17 114 0 140 141 142 111 129 134 0 143 +16 134 243 144 ?114
 145 146 147 0 0 9 17 135 0 148 149 150 127 132 138 0 142 +15 148 120 0 150 151
 0 17 149 0 148 118 135 123 142 152 0 153 +17 150 0 148 135 118 119 154 155 0 13
2 -16 138 199 156 ?135 157 158 159 0 0 9 17 142 0 140 114 126 127 149 152 0 0 -1
5 140 70 0 142 160 0 17 126 0 140 142 161 123 99 146 0 149 +16 152 179 162 ?149
 163 164 165 0 0 9 81 1 162 474 59 152 0 0 166 167 168 16 163 221 169 ?170 171 1
52 172 0 0 9 16 164 205 173 ?141 152 0 174 0 0 9 30 165 106 0 152 174 172 0 +.13
 0 1387778780781446e-32 0 0 1 30 174 107 0 164 175 165 0 +0 0 -.0825 -1 0 -10675
2213906265e-30 30 172 105 0 163 165 176 0 +0 0 .0825 -1 0 -106752213906265e-30 3
0 176 104 0 171 172 177 0 +-.13 0 -1387778780781446e-32 0 0 1 16 171 213 178 ?17
9 180 163 176 0 0 9 30 177 196 0 158 176 159 0 -.13 -.0111 .0725 0 1 0 16 158 19
4 181 ?118 138 182 177 0 0 9 30 159 201 0 138 177 183 0 +.13 0 -.0725 0 1 0 31 2
55 183 230 0 157 159 184 0 --.12 0 -.0725 0 -1 0 0 0 -1 .01 16 157 228 185 ?106
 186 138 183 0 0 9 31 184 235 0 186 183 187 0 --.12 0 .0725 0 -1 0 0 0 -1 .01 16
 186 233 188 ?96 146 157 184 0 0 9 31 187 240 0 146 184 147 0 -.12 0 .0725 0 -1
 0 0 0 -1 .01 16 146 238 189 ?126 134 186 187 0 0 9 31 147 245 0 134 187 190 0 -
.12 0 -.0725 0 -1 0 0 0 -1 .01 30 190 258 0 145 147 191 0 +-.12 -.0111 -.0825 0
 1 0 16 145 256 192 ?193 139 134 190 0 0 9 30 191 263 0 139 190 194 0 -.12 -.011
1 -.0825 0 1 0 16 139 261 61 ?92 195 145 191 0 0 9 31 194 284 0 195 191 196 0 +-
.12 -.0111 -.0725 0 -1 0 0 0 -1 .01 16 195 282 197 ?88 67 139 194 0 0 9 31 196 2
89 0 67 194 198 0 +-.12 -.0111 .0725 0 -1 0 0 0 -1 .01 16 67 287 199 ?57 200 195
 196 0 0 9 31 198 294 0 200 196 201 0 +.12 -.0111 .0725 0 -1 0 0 0 -1 .01 16 200
 292 202 ?84 203 67 198 0 0 9 31 201 299 0 203 198 204 0 +.12 -.0111 -.0725 0 -1
 0 0 0 -1 .01 16 203 297 205 ?122 206 200 201 0 0 9 30 204 304 0 206 201 207 0 -
-.12 -.0111 .0825 0 1 0 16 206 302 208 ?78 209 203 204 0 0 9 30 207 309 0 209 20
4 50 0 +.12 -.0111 .0825 0 1 0 16 209 307 210 ?211 55 206 207 0 0 9 30 50 314 0
 55 207 37 0 --.13 -.0111 -.0725 0 1 0 16 55 312 212 ?70 40 209 50 0 0 9 81 1 21
2 461 59 55 0 0 197 189 213 80 255 1 59 214 215 9000 0 0 0 0 3 6 0 0 0 FFTFTFTTF
FFFFF1 81 1 197 460 59 195 0 0 185 212 216 81 1 189 462 59 146 0 0 212 202 217 8
2 255 3 213 7 7 1 81 1 202 463 59 200 0 0 189 210 218 82 3 217 7 8 1 81 1 210 46
4 59 209 0 0 202 181 219 82 3 218 7 9 1 81 1 181 465 59 158 0 0 210 188 220 82 3
 219 7 10 1 81 1 188 466 59 186 0 0 181 199 221 82 3 220 7 11 1 81 1 199 467 59
 67 0 0 188 208 222 82 3 221 7 12 1 81 1 208 468 59 206 0 0 199 53 223 82 3 222
 7 13 1 81 1 53 469 59 40 0 0 208 173 224 82 3 223 7 14 1 81 1 173 470 59 164 0
 0 53 225 226 82 3 224 7 15 1 81 1 225 471 59 180 0 0 173 169 227 82 3 226 7 16
 1 16 180 249 225 ?228 155 171 229 0 0 9 81 1 169 472 59 163 0 0 225 166 230 82
 3 227 7 17 1 81 1 166 473 59 231 0 0 169 162 232 82 3 230 7 18 1 16 231 267 166
 ?65 182 155 233 0 0 9 82 3 232 7 19 1 17 65 0 63 57 84 71 234 231 0 66 +16 182
 275 235 ?68 158 231 175 0 0 9 16 155 187 167 ?154 231 180 236 0 0 9 30 233 15 0
 231 236 175 0 +0 -.0111 .0825 -1 0 -106752213906265e-30 30 236 11 0 155 229 233
 0 +.13 -.0111 1387778780781446e-32 0 0 1 30 175 19 0 182 233 174 0 +-.13 -.0111
 -1387778780781446e-32 0 0 1 30 229 7 0 180 0 236 0 +0 -.0111 -.0825 -1 0 -10675
2213906265e-30 81 1 167 475 59 155 0 0 162 178 237 17 154 0 63 84 122 115 150 15
5 0 238 +15 63 5 0 239 240 0 17 84 0 63 65 154 79 238 200 0 234 +17 122 0 63 154
 239 119 136 203 0 150 +17 238 0 241 153 242 115 84 200 0 0 -15 241 359 0 238 24
3 0 17 153 0 241 99 238 123 118 158 0 0 -17 242 0 241 238 99 79 211 209 0 0 -17
 99 0 241 242 153 97 126 146 0 211 -17 211 0 244 170 234 97 242 209 0 161 +15 24
4 118 0 234 245 0 17 170 0 244 78 211 93 161 163 0 246 +17 234 0 244 211 78 79 6
5 231 0 242 -17 161 0 140 126 96 97 170 163 0 0 -17 96 0 140 161 179 93 103 186
 0 170 +17 179 0 140 96 106 100 76 171 0 0 +17 103 0 247 248 246 100 96 186 0 54
 -15 247 380 0 66 249 0 17 248 0 247 66 103 41 54 40 0 0 -17 246 0 247 103 66 93
 78 206 0 0 -17 54 0 75 76 68 100 248 40 0 179 +15 75 116 0 68 250 0 17 76 0 75
 70 54 104 179 171 0 77 -17 68 0 75 54 70 41 64 182 0 248 +17 64 0 63 88 57 58 6
8 182 0 251 -17 88 0 63 239 64 85 251 195 0 228 +17 251 0 252 77 253 58 88 195 0
 0 -15 252 401 0 251 48 0 17 77 0 252 110 251 104 70 55 0 0 -17 253 0 252 251 11
0 85 193 145 0 0 -17 110 0 252 253 77 107 106 157 0 193 -17 193 0 254 143 228 10
7 253 145 0 141 +15 254 122 0 143 46 0 17 143 0 254 92 193 111 141 164 0 133 -17
 228 0 254 193 92 85 239 180 0 253 +17 141 0 140 106 114 107 143 164 0 0 +17 106
 0 140 179 141 104 110 157 0 76 +17 92 0 254 228 143 89 133 139 0 239 +17 239 0
 63 122 88 89 228 180 0 136 -17 136 0 131 133 132 89 122 203 0 0 -14 255 46 123
 255 ?151 0 254 35 256 +0 0 151 0 52 81 1 255 489 257 46 258 0 0 259 260 14 151
 121 259 ?245 46 148 35 261 -0 0 245 46 52 50 255 256 127 0 46 261 262 0 +0 -.01
11 -.0825 106752213906265e-30 0 -1 -1 0 -106752213906265e-30 13 52 44 0 0 0 0 0
 0 39 46 50 261 126 0 151 263 256 0 +.13 -.0111 1387778780781446e-32 -1 0 0 0 0
 1 51 262 349 0 137 256 264 0 +.12 -.0111 -.0725 0 -1 0 .01 0 0 -1 14 137 337 26
5 ?243 160 131 35 262 +0 0 243 160 52 51 264 370 0 243 262 49 0 +.12 -.0111 .072
5 0 1 0 .01 0 0 1 14 243 358 266 ?249 137 241 35 264 +0 0 249 137 52 51 49 391 0
 249 264 36 0 +-.12 -.0111 .0725 0 -1 0 .01 0 0 -1 14 249 379 267 ?48 243 247 35
 49 +0 0 48 243 52 81 1 267 497 257 249 268 0 266 269 270 14 48 400 269 ?0 249 2
52 35 36 +0 0 0 249 52 81 1 269 498 257 48 271 0 267 0 272 80 1 257 0 273 8001 0
 0 0 0 3 5 0 0 0 FFFFTFTFFFFFFF2 81 1 271 479 59 48 0 269 274 275 276 83 255 3 2
72 .3019607843137255 .2901960784313725 .2627450980392155 81 1 274 478 59 137 0 2
65 235 271 277 81 1 275 480 59 243 0 266 271 268 278 82 3 276 7 1 2 81 1 266 496
 257 243 275 0 265 267 279 81 1 268 481 59 249 0 267 275 258 280 82 3 278 7 2 2
 81 1 258 482 59 46 0 255 268 281 282 82 3 280 7 3 2 81 1 281 483 59 160 0 283 2
58 284 285 82 3 282 7 4 2 14 160 63 283 ?137 240 140 35 286 -0 0 137 240 52 81 1
 283 494 257 160 281 0 287 265 288 81 1 284 484 59 240 0 287 281 289 290 82 3 28
5 7 5 2 14 240 1 287 ?160 250 63 35 291 +0 0 160 250 52 81 1 287 493 257 240 284
 0 292 283 293 81 1 289 485 59 245 0 294 284 295 296 82 3 290 7 6 2 14 245 119 2
94 ?250 151 244 35 263 -0 0 250 151 52 81 1 294 491 257 245 289 0 259 292 297 81
 1 295 486 59 151 0 259 289 298 299 82 3 296 7 7 2 81 1 259 490 257 151 295 0 25
5 294 300 81 1 298 487 59 250 0 292 295 0 301 82 3 299 7 8 2 14 250 117 292 ?240
 245 75 35 302 +0 0 240 245 52 81 1 292 492 257 250 298 0 294 287 303 82 3 301 7
 9 2 83 3 303 .3019607843137255 .2901960784313725 .2627450980392155 50 302 124 0
 250 286 263 0 +-.13 -.0111 -1387778780781446e-32 -1 0 0 0 0 1 50 286 103 0 160
 291 302 0 +0 0 0 0 -1 0 1 0 0 50 263 125 0 245 302 261 0 +0 -.0111 .0825 106752
213906265e-30 0 -1 -1 0 -106752213906265e-30 50 291 2 0 240 0 286 0 +0 -.0111 0
 0 -1 0 1 0 0 83 3 300 .3019607843137255 .2901960784313725 .2627450980392155 83
 3 297 .3019607843137255 .2901960784313725 .2627450980392155 83 3 293 .301960784
3137255 .2901960784313725 .2627450980392155 81 1 265 495 257 137 274 0 283 266 3
04 83 3 288 .3019607843137255 .2901960784313725 .2627450980392155 83 3 304 .3019
607843137255 .2901960784313725 .2627450980392155 83 3 279 .3019607843137255 .290
1960784313725 .2627450980392155 81 1 235 477 59 182 0 0 178 274 305 82 3 277 7 0
 2 81 1 178 476 59 171 0 0 167 235 306 82 3 305 7 23 1 82 3 306 7 22 1 79 255 15
 273 SDL/TYSA_COLOUR83 3 270 .3019607843137255 .2901960784313725 .26274509803921
55 83 3 260 .3019607843137255 .2901960784313725 .2627450980392155 17 66 0 247 24
6 248 71 57 67 0 0 -17 78 0 244 234 170 71 246 206 0 65 +17 118 0 148 150 149 11
5 153 158 0 154 +82 3 237 7 21 1 81 1 185 459 59 157 0 0 192 197 307 82 3 216 7
 6 1 81 1 192 458 59 145 0 0 156 185 308 82 3 307 7 5 1 81 1 156 457 59 138 0 0
 205 192 309 82 3 308 7 4 1 81 1 205 456 59 203 0 0 144 156 310 82 3 309 7 3 1 8
1 1 144 455 59 134 0 0 61 205 311 82 3 310 7 2 1 81 1 61 454 59 139 0 0 56 144 3
12 82 3 311 7 1 1 82 3 312 7 0 1 79 9 215 BTI/DetId82 3 168 7 20 1 81 1 91 439 5
9 89 0 0 113 128 313 81 1 121 441 59 119 0 0 128 109 314 82 3 130 7 2 0 81 1 109
 442 59 107 0 0 121 87 315 82 3 314 7 3 0 81 1 87 443 59 85 0 0 109 72 316 82 3
 315 7 4 0 81 1 72 444 59 104 0 0 87 69 317 82 3 316 7 5 0 82 3 317 7 6 0 81 1 1
13 438 59 111 0 0 318 91 319 82 3 313 7 1 0 81 1 318 173 59 9 0 320 0 113 321 82
 3 319 7 0 0 81 1 320 488 322 9 318 43 0 0 323 82 3 321 6 0 3 80 1 322 257 324 8
040 0 0 0 0 3 5 0 0 0 TTTFFFFFFFFFFF2 81 1 43 499 325 9 320 33 0 0 326 83 3 323
 .3019607843137255 .2901960784313725 .2627450980392155 80 1 325 42 327 8038 0 0
 0 0 0 0 0 0 0 TTTTTTTTTTTTTF10 98 255 6 326 80 97 114 116 32 49 79 14 327 SDL/T
YSA_UNAME79 17 324 SDL/TYSA_COLOUR_281 1 125 447 59 123 0 0 73 83 328 81 1 73 44
6 59 97 0 0 69 125 329 81 1 83 448 59 79 0 0 125 117 330 82 3 328 7 9 0 81 1 117
 449 59 115 0 0 83 95 331 82 3 330 7 10 0 81 1 95 450 59 93 0 0 117 102 332 82 3
 331 7 11 0 81 1 102 451 59 100 0 0 95 60 333 82 3 332 7 12 0 81 1 60 452 59 71
 0 0 102 56 334 82 3 333 7 13 0 82 3 334 7 14 0 82 3 329 7 8 0 82 3 74 7 7 0 82
 3 62 7 15 0 19 47 133 0 9 0 39 35 S0 74 4 CI16 index_map_offset0 0 1 dCCZ20 45
 5 0 0 298 320 269 43 33 0 0 0 0 0 0 0 0 0 0 0 0 0 0 0 80 1 42 335 336 8017 0 0
 0 0 0 0 0 0 0 TTTTTTTTTTTTTF3 84 255 6 44 Part 179 13 336 SDL/TYSA_NAME81 1 21
 249 42 8 337 0 0 0 338 70 22 0 4 T8 0 0 3 20 1 339 339 13 23 188 0 8 0 340 0 0
 341 0 50 24 181 0 340 342 0 0 +.0342020143325669 -.0182118 -.0939692620785908 .
939692620785908 0 .3420201433256685 .3420201433256685 0 -.939692620785908 30 25
 187 0 28 343 0 0 +0 -.0182118 0 0 1 0 29 26 152 0 344 345 0 .0684040286651338 0
 -.1879385241571815 19 27 61 0 8 341 0 346 V0 16 28 163 347 ?348 0 349 25 0 0 8
 18 29 55 350 351 0 352 353 ?8 81 1 350 212 59 29 0 0 354 355 356 17 351 0 357 3
58 359 29 360 361 0 362 -18 352 50 363 364 29 365 366 ?8 29 353 57 0 29 366 367
 .0684040286651338 -.0182118 -.1879385241571815 29 366 52 0 352 368 353 .0505028
842391622 -.0182118 -.1944540078875355 29 367 157 0 369 353 370 0 0 0 18 369 141
 371 348 372 0 367 ?8 29 370 156 0 372 367 373 0 0 .1016 18 372 137 355 374 375
 369 370 ?8 29 373 155 0 375 370 376 -.01905 0 .1016 18 375 133 377 378 379 372
 373 ?8 29 376 154 0 379 373 345 -.01905 0 -.00335902898249628 18 379 129 380 38
1 382 375 376 ?8 29 345 153 0 382 376 26 .0505028842391622 0 -.1944540078875355
 18 382 125 383 384 344 379 345 ?8 81 1 383 215 59 382 0 0 385 363 386 17 384 0
 357 359 358 382 387 388 0 389 +18 344 121 354 360 390 382 26 ?8 81 1 354 211 59
 344 0 0 391 350 392 17 360 0 393 394 362 344 351 361 0 395 +18 390 30 391 396 3
97 344 398 ?8 81 1 391 210 59 390 0 0 371 354 399 17 396 0 393 362 394 390 348 2
8 0 400 -18 397 35 385 401 402 390 403 ?8 29 398 32 0 390 0 403 0 -.0182118 0 29
 403 37 0 397 398 404 0 -.0182118 .1016 29 404 42 0 402 403 368 -.01905 -.018211
8 .1016 18 402 40 405 406 365 397 404 ?8 29 368 47 0 365 404 366 -.01905 -.01821
18 -.00335902898249628 18 365 45 407 408 352 402 368 ?8 81 1 407 220 59 365 0 0
 380 347 409 17 408 0 410 364 406 365 411 412 0 413 +15 410 5 0 414 415 0 17 364
 0 410 416 408 352 417 418 0 387 +17 406 0 410 408 401 402 419 420 0 421 +17 411
 0 422 423 413 402 408 412 0 0 -16 412 18 424 ?408 418 420 425 0 0 8 17 413 0 42
2 411 381 365 426 427 0 417 -15 422 168 0 381 428 0 17 381 0 422 413 423 379 429
 430 0 426 +17 426 0 431 389 417 379 413 427 0 432 +16 427 160 433 ?426 434 388
 435 0 0 8 17 417 0 431 426 387 365 364 418 0 0 -15 431 166 0 389 436 0 17 387 0
 431 417 389 352 384 388 0 358 -16 418 22 437 ?364 438 412 439 0 0 8 81 1 437 23
8 59 418 0 0 440 441 442 16 438 26 443 ?358 361 418 444 0 0 8 30 439 23 0 418 42
5 444 0 +.0157264421195811 -.0182118 -.098906518435016 .342020143325669 0 -.9396
92620785908 30 425 19 0 412 445 439 0 +-.01905 -.0182118 .0491204855087519 13222
1000349849e-30 0 -1 30 444 27 0 438 439 446 0 +.059453456452148 -.0182118 -.1911
962660223585 -.939692620785908 0 -.342020143325669 30 446 151 0 447 444 448 0 +.
0342020143325669 0 -.0939692620785908 .3420201433256685 0 -.939692620785908 16 4
47 117 449 ?395 450 0 446 0 0 8 30 448 150 0 450 446 451 0 +0 0 .0508 0 0 1 16 4
50 113 452 ?374 453 447 448 0 0 8 30 451 149 0 453 448 454 0 +-.009525 0 .1016 -
1 0 0 16 453 109 455 ?378 430 450 451 0 0 8 30 454 148 0 430 451 456 0 +-.01905
 0 .0491204855087519 132221000349849e-30 0 -1 16 430 105 457 ?381 458 453 454 0
 0 8 30 456 147 0 458 454 459 0 +.0157264421195811 0 -.098906518435016 .34202014
3325669 0 -.939692620785908 16 458 101 440 ?389 460 430 456 0 0 8 30 459 146 0 4
60 456 461 0 +.059453456452148 0 -.1911962660223585 -.939692620785908 0 -.342020
143325669 16 460 97 462 ?463 464 458 459 0 0 8 30 461 182 0 361 459 465 0 +.0684
040286651338 -.0182118 -.1879385241571815 0 1 0 16 361 158 466 ?360 388 438 461
 0 0 8 30 465 183 0 388 461 435 0 +.0505028842391622 -.0182118 -.194454007887535
5 0 1 0 16 388 159 467 ?384 427 361 465 0 0 8 30 435 184 0 427 465 468 0 +-.0190
5 -.0182118 -.00335902898249628 0 1 0 30 468 185 0 434 435 343 0 +-.01905 -.0182
118 .1016 0 1 0 16 434 161 469 ?423 349 427 468 0 0 8 30 343 186 0 349 468 25 0
 +0 -.0182118 .1016 0 1 0 16 349 162 470 ?471 28 434 343 0 0 8 81 1 470 223 59 3
49 0 0 466 467 472 17 471 0 473 378 419 372 474 349 0 475 +15 473 170 0 378 476
 0 17 378 0 473 421 471 375 475 453 0 423 +17 419 0 473 471 421 397 406 420 0 0
 -17 474 0 477 400 374 397 471 349 0 419 -17 475 0 478 479 429 372 378 453 0 0 -
15 478 96 0 395 480 0 17 479 0 478 395 475 369 374 450 0 394 -17 429 0 478 475 4
32 375 381 430 0 0 -17 432 0 478 429 463 379 389 458 0 0 -17 463 0 478 432 395 3
82 359 460 0 0 +17 389 0 431 387 426 382 432 458 0 463 +17 395 0 478 463 479 344
 394 447 0 359 +17 359 0 357 351 384 344 463 460 0 0 -15 357 164 0 359 481 0 14
 481 165 482 ?415 436 357 23 483 +0 0 415 436 346 81 1 482 243 59 481 0 0 484 48
5 486 14 415 1 487 ?480 481 410 23 488 +0 0 480 481 346 14 436 167 489 ?481 428
 431 23 490 -0 0 481 428 346 50 483 176 0 481 491 490 0 +.059453456452148 -.0182
118 -.1911962660223585 .342020143325669 0 -.939692620785908 -.939692620785909 0
 -.342020143325669 13 346 62 0 0 0 0 0 0 27 340 14 340 175 441 ?492 0 393 23 24
 +0 0 492 0 346 81 1 441 239 59 340 0 0 437 493 494 14 492 173 484 ?476 340 477
 23 342 -0 0 476 340 346 15 393 174 0 394 340 0 17 394 0 393 396 360 369 395 447
 0 0 -81 1 484 242 59 492 0 0 487 482 495 14 476 171 485 ?428 492 473 23 496 -0
 0 428 492 346 15 477 172 0 374 492 0 50 342 180 0 492 496 24 0 +0 -.0182118 .05
08 -1 0 0 0 0 1 50 496 179 0 476 497 342 0 +-.009525 -.0182118 .1016 0 0 -1 -1 0
 0 50 497 178 0 428 490 496 0 +-.01905 -.0182118 .0491204855087519 1 0 132221000
349849e-30 132221000349849e-30 0 -1 14 428 169 498 ?436 476 422 23 497 -0 0 436
 476 346 50 490 177 0 436 483 497 0 +.0157264421195811 -.0182118 -.0989065184350
16 .939692620785908 0 .342020143325669 .342020143325669 0 -.939692620785908 81 1
 498 245 59 428 0 0 485 489 499 81 1 485 244 59 476 0 0 482 498 500 81 1 489 246
 59 436 0 0 498 501 502 82 3 499 6 6 2 81 1 501 247 59 8 0 337 489 0 503 82 3 50
2 6 7 2 81 1 337 248 325 8 501 21 0 0 504 82 3 503 6 0 3 98 6 504 80 97 114 116
 32 49 82 3 500 6 5 2 17 374 0 477 474 348 372 479 450 0 471 +17 348 0 477 374 4
00 369 396 28 0 479 +17 400 0 477 348 474 390 401 505 0 414 -17 401 0 410 406 41
4 397 400 505 0 474 +16 505 10 506 ?401 420 464 507 0 0 8 17 414 0 410 401 416 3
90 362 464 0 0 -17 416 0 410 414 364 29 358 438 0 0 -17 362 0 393 360 396 29 414
 464 0 416 +16 464 6 508 ?362 505 460 509 0 0 8 81 1 508 228 59 464 0 0 449 452
 510 30 509 7 0 464 0 507 0 +.0342020143325669 -.0182118 -.0939692620785908 .342
0201433256685 0 -.939692620785908 30 507 11 0 505 509 445 0 +0 -.0182118 .0508 0
 0 1 30 445 15 0 420 507 425 0 +-.009525 -.0182118 .1016 -1 0 0 16 420 14 511 ?4
06 412 505 445 0 0 8 81 1 511 234 59 420 0 0 455 457 512 81 1 455 233 59 453 0 0
 443 511 513 81 1 457 235 59 430 0 0 511 424 514 82 3 512 6 13 1 81 1 424 236 59
 412 0 0 457 440 515 82 3 514 6 14 1 81 1 440 237 59 458 0 0 424 437 516 82 3 51
5 6 15 1 82 3 516 6 16 1 81 1 443 232 59 438 0 0 462 455 517 82 3 513 6 12 1 81
 1 462 231 59 460 0 0 506 443 518 82 3 517 6 11 1 81 1 506 230 59 505 0 0 452 46
2 519 82 3 518 6 10 1 81 1 452 229 59 450 0 0 508 506 520 82 3 519 6 9 1 82 3 52
0 6 8 1 81 1 449 227 59 447 0 0 433 508 521 82 3 510 6 7 1 81 1 433 226 59 427 0
 0 469 449 522 82 3 521 6 6 1 81 1 469 225 59 434 0 0 467 433 523 82 3 522 6 5 1
 81 1 467 224 59 388 0 0 470 469 524 82 3 523 6 4 1 82 3 524 6 3 1 17 358 0 357
 384 351 352 416 438 0 0 +81 1 487 241 59 415 0 0 493 484 525 82 3 495 6 3 2 81
 1 493 240 59 480 0 0 441 487 526 82 3 525 6 2 2 14 480 87 493 ?0 415 478 23 491
 -0 0 0 415 346 82 3 526 6 1 2 50 491 145 0 480 488 483 0 +.02467701433256685 0
 -.0464270039437678 0 -1 0 1 0 0 50 488 2 0 415 0 491 0 +.02467701433256685 -.01
82118 -.0464270039437678 0 -1 0 1 0 0 82 3 494 6 0 2 82 3 486 6 4 2 17 421 0 473
 419 378 402 423 434 0 411 -17 423 0 422 381 411 375 421 434 0 429 +81 1 466 222
 59 361 0 0 347 470 527 82 3 472 6 2 1 81 1 347 221 59 28 0 0 407 466 528 82 3 5
27 6 1 1 82 3 528 6 0 1 82 3 442 6 17 1 81 1 380 219 59 379 0 0 405 407 529 82 3
 409 6 11 0 81 1 405 218 59 402 0 0 377 380 530 82 3 529 6 10 0 81 1 377 217 59
 375 0 0 363 405 531 82 3 530 6 9 0 81 1 363 216 59 352 0 0 383 377 532 82 3 531
 6 8 0 82 3 532 6 7 0 81 1 385 214 59 397 0 0 355 383 533 81 1 355 213 59 372 0
 0 350 385 534 82 3 533 6 5 0 82 3 534 6 4 0 81 1 371 209 59 369 0 0 0 391 535 8
2 3 399 6 1 0 82 3 535 6 0 0 82 3 392 6 2 0 82 3 386 6 6 0 82 3 356 6 3 0 19 341
 189 0 8 0 27 23 S0 74 20 339 3 0 0 501 337 21 0 0 0 0 0 0 0 0 0 0 0 0 0 0 0 0 0
 84 6 338 Part 181 1 6 974 42 3 536 0 0 0 537 70 7 0 4 T3 0 0 3 20 1 538 538 13
 10 244 0 3 0 539 0 0 540 0 51 11 928 0 541 542 0 0 +-.00718863608251574 -.01821
18 .00018863608251574 0 1 0 .00981136391748426 0 0 1 30 12 883 0 15 543 0 0 +-.0
17 -.0182118 .00018863608251574 0 1 0 29 13 870 0 16 544 0 -.017 -.0182118 .0001
8863608251574 19 14 79 0 3 540 0 545 V0 16 15 881 546 ?547 0 548 12 0 0 3 18 16
 867 549 550 0 551 13 ?3 81 1 549 945 59 16 0 0 552 553 554 17 550 0 555 556 557
 16 558 559 0 560 +18 551 858 561 562 16 563 544 ?3 81 1 561 951 59 551 0 0 564
 546 565 17 562 0 566 567 568 551 569 570 0 571 +18 563 844 564 572 551 573 574
 ?3 29 544 861 0 551 574 13 .183 -.0182118 .00018863608251574 29 574 847 0 563 5
75 544 .183 0 .00018863608251574 29 575 843 0 573 576 574 -.017 0 .0001886360825
1574 18 573 840 552 577 563 578 575 ?3 29 576 829 0 578 579 575 .173188636082515
5 -.0182118 .01 18 578 826 580 581 573 582 576 ?3 29 579 825 0 582 583 576 -.007
18863608251574 -.0182118 .01 18 582 822 584 585 578 586 579 ?3 29 583 821 0 586
 587 579 .1731886360825155 0 .01 18 586 818 588 589 582 590 583 ?3 29 587 817 0
 590 591 583 -.00718863608251574 0 .01 18 590 814 553 592 586 593 587 ?3 29 591
 409 0 593 594 587 .16092 0 0 18 593 405 595 596 590 597 591 ?3 29 594 394 0 597
 598 591 0 0 -.00508 18 597 390 599 600 593 601 594 ?3 29 598 196 0 602 603 594
 0 0 -.011 18 602 155 604 605 606 607 598 ?3 29 603 197 0 607 608 598 -.017 0 -.
011 18 607 159 609 610 602 611 603 ?3 29 608 200 0 611 612 603 .183 0 -.011 18 6
11 171 613 614 607 615 608 ?3 29 612 201 0 615 616 608 .166 0 -.011 18 615 175 6
17 618 611 619 612 ?3 29 616 75 0 601 620 612 0 -.0182118 -.011 18 601 73 621 62
2 597 623 616 ?3 29 620 70 0 623 624 616 -.017 -.0182118 -.011 18 623 68 625 626
 601 627 620 ?3 29 624 55 0 627 628 620 .183 -.0182118 -.011 18 627 53 629 567 6
23 606 624 ?3 29 628 50 0 606 630 624 .166 -.0182118 -.011 18 606 48 631 632 627
 602 628 ?3 29 630 761 0 619 633 628 .00508 0 0 18 619 580 634 635 615 636 630 ?
3 29 633 764 0 636 637 630 .166 0 -.00508 18 636 685 638 639 619 640 633 ?3 29 6
37 766 0 641 642 633 .166 -.0182118 -.00508 18 641 683 643 644 645 646 637 ?3 29
 642 768 0 646 647 637 .16092 -.0182118 0 18 646 678 648 649 641 0 642 ?3 29 647
 772 0 640 650 642 0 -.0182118 -.00508 18 640 573 651 652 636 645 647 ?3 29 650
 774 0 645 0 647 .00508 -.0182118 0 18 645 578 653 654 640 641 650 ?3 81 1 653 7
84 59 645 0 0 651 648 655 17 654 0 656 652 635 645 657 658 0 659 +15 656 590 0 6
35 660 0 17 652 0 656 600 654 640 659 661 0 662 -17 635 0 656 654 600 619 663 66
4 0 657 +17 657 0 665 666 667 619 654 658 0 668 -16 658 558 669 ?654 670 661 671
 0 0 3 17 659 0 555 672 673 645 652 661 0 667 +15 555 5 0 571 674 0 17 672 0 555
 675 659 646 667 676 0 0 +17 673 0 555 659 677 640 622 678 0 0 -16 661 520 679 ?
659 658 680 681 0 0 3 17 667 0 665 657 682 645 672 676 0 0 -15 665 467 0 657 683
 0 17 682 0 665 667 666 646 596 680 0 672 +16 676 10 684 ?672 685 678 686 0 0 3
 81 1 684 794 59 676 0 0 687 688 689 16 685 14 690 ?632 691 676 692 0 0 3 16 678
 6 693 ?622 676 694 695 0 0 3 30 686 11 0 676 695 692 0 +.083 -.0182118 0 1 0 0
 30 695 7 0 678 696 686 0 +0 -.0182118 -.0055 0 0 -1 30 692 15 0 685 686 697 0 +
.166 -.0182118 -.0055 0 0 -1 30 697 19 0 691 692 698 0 +.1745 -.0182118 -.011 1
 0 0 16 691 18 699 ?700 701 685 697 0 0 3 30 698 23 0 701 697 702 0 +.183 -.0182
118 -.000500000000000006 0 0 -1 16 701 859 703 ?567 704 691 698 0 0 3 30 702 27
 0 704 698 705 0 +.083 -.0182118 .01 1 0 0 16 704 823 706 ?707 708 701 702 0 0 3
 30 705 31 0 708 702 709 0 +-.017 -.0182118 -5e-4 0 0 1 16 708 30 710 ?560 711 7
04 705 0 0 3 30 709 35 0 711 705 712 0 +-.0085 -.0182118 -.011 -1 0 -10204255741
04004e-31 16 711 34 713 ?714 715 708 709 0 0 3 30 712 195 0 716 709 717 0 +0 0 -
.0055 0 0 -1 16 716 151 718 ?605 719 670 712 0 0 3 30 717 194 0 719 712 720 0 +.
083 0 0 1 0 0 16 719 147 687 ?666 721 716 717 0 0 3 30 720 193 0 721 717 722 0 +
.166 0 -.0055 0 0 -1 16 721 143 688 ?618 723 719 720 0 0 3 30 722 192 0 723 720
 724 0 +.1745 0 -.011 1 0 0 16 723 139 725 ?726 727 721 722 0 0 3 30 724 191 0 7
27 722 728 0 +.183 0 -.000500000000000006 0 0 -1 16 727 845 729 ?614 730 723 724
 0 0 3 30 728 190 0 730 724 731 0 +.083 0 .01 1 0 0 16 730 815 732 ?733 734 727
 728 0 0 3 30 731 189 0 734 728 735 0 +-.017 0 -5e-4 0 0 1 16 734 127 736 ?737 6
94 730 731 0 0 3 30 735 188 0 694 731 738 0 +-.0085 0 -.011 -1 0 -10204255741040
04e-31 16 694 123 739 ?740 678 734 735 0 0 3 30 738 236 0 715 735 741 0 +0 -.018
2118 -.011 0 1 0 16 715 204 742 ?743 744 711 738 0 0 3 30 741 237 0 744 738 745
 0 +-.017 -.0182118 -.011 0 1 0 16 744 205 746 ?610 747 715 741 0 0 3 30 745 240
 0 747 741 748 0 +.183 -.0182118 -.011 0 1 0 16 747 208 749 ?750 751 744 745 0 0
 3 30 748 241 0 751 745 752 0 +.166 -.0182118 -.011 0 1 0 16 751 209 753 ?754 75
5 747 748 0 0 3 31 752 412 0 755 748 756 0 -.166 0 -142366318899338e-32 0 -1 0 0
 0 -1 .00508 16 755 410 757 ?639 664 751 752 0 0 3 31 756 418 0 664 752 758 0 --
1117111733966444e-33 0 238524477946811e-32 0 -1 0 0 0 -1 .00508 16 664 416 759 ?
635 760 755 756 0 0 3 30 758 832 0 760 756 761 0 --.00718863608251574 -.0182118
 .01 0 1 0 16 760 830 762 ?585 763 664 758 0 0 3 30 761 837 0 763 758 764 0 +.17
31886360825155 -.0182118 .01 0 1 0 16 763 835 765 ?766 767 760 761 0 0 3 31 764
 850 0 767 761 768 0 --.00718863608251574 0 .00018863608251574 0 -1 0 0 0 -1 .00
981136391748426 16 767 848 769 ?592 770 763 764 0 0 3 31 768 855 0 770 764 771 0
 -.1731886360825155 0 .00018863608251574 0 -1 0 0 0 -1 .00981136391748426 16 770
 853 772 ?572 570 767 768 0 0 3 30 771 864 0 570 768 773 0 -.183 -.0182118 .0001
8863608251574 0 1 0 16 570 862 774 ?562 559 770 771 0 0 3 31 773 873 0 559 771 5
43 0 +-.00718863608251574 -.0182118 .00018863608251574 0 -1 0 0 0 -1 .0098113639
1748426 16 559 871 775 ?550 548 570 773 0 0 3 31 543 878 0 548 773 12 0 +.173188
6360825155 -.0182118 .00018863608251574 0 -1 0 0 0 -1 .00981136391748426 16 548
 876 776 ?581 15 559 543 0 0 3 81 1 776 959 59 548 0 0 772 732 777 17 581 0 555
 557 571 578 778 548 0 707 +17 557 0 555 550 581 582 707 704 0 558 -17 571 0 555
 581 700 551 567 701 0 778 -17 778 0 779 569 780 551 581 548 0 0 -17 707 0 781 7
66 585 578 557 704 0 780 +15 781 216 0 707 782 0 17 766 0 781 783 707 586 780 76
3 0 733 +17 585 0 781 707 783 582 784 760 0 557 +17 780 0 779 778 589 578 766 76
3 0 0 -15 779 896 0 778 785 0 17 589 0 779 780 569 586 572 770 0 766 -17 569 0 7
79 589 778 563 562 570 0 0 -17 572 0 786 614 733 563 589 770 0 568 +15 786 417 0
 733 787 0 17 614 0 786 788 572 611 568 727 0 750 +17 733 0 786 572 592 586 783
 730 0 0 +17 568 0 566 562 750 563 614 727 0 569 -15 566 218 0 568 789 0 17 750
 0 566 568 567 611 790 747 0 726 +17 567 0 566 750 562 627 571 701 0 700 +17 790
 0 791 792 726 627 750 747 0 0 -17 726 0 791 790 754 611 788 723 0 0 +15 791 220
 0 726 793 0 17 754 0 791 726 792 615 794 751 0 788 +17 788 0 786 795 614 615 72
6 723 0 0 -17 795 0 786 796 788 636 618 721 0 0 -17 796 0 786 668 795 593 639 75
5 0 666 -17 618 0 797 794 798 615 795 721 0 754 +15 797 455 0 798 799 0 17 794 0
 797 800 618 606 754 751 0 792 -17 798 0 797 618 800 636 644 801 0 795 -17 800 0
 797 798 794 641 632 685 0 0 -17 644 0 802 649 639 641 798 801 0 675 +16 801 661
 803 ?644 680 804 805 0 0 3 81 1 803 790 59 801 0 0 806 679 807 16 680 646 806 ?
682 661 801 696 0 0 3 16 804 625 808 ?675 801 0 809 0 0 3 30 805 744 0 801 809 6
96 0 +.166 .183720634759588 -.00508 0 -1 0 31 809 746 0 804 671 805 0 +.166 -.01
82118 -142366318899338e-32 0 1 0 0 0 -1 .00508 30 696 742 0 680 805 695 0 +.1609
2 .183720634759588 0 0 -1 0 30 671 751 0 658 810 809 0 +.00508 .183720634759588
 0 0 -1 0 30 810 753 0 670 681 671 0 +0 .183720634759588 -.00508 0 -1 0 16 670 5
43 811 ?662 716 658 810 0 0 3 31 681 755 0 661 0 810 0 +-1117111733966444e-33 -.
0182118 238524477946811e-32 0 1 0 0 0 -1 .00508 81 1 811 787 59 670 0 0 643 669
 812 17 662 0 813 622 814 640 600 670 0 673 +15 813 226 0 814 539 0 17 622 0 813
 743 662 601 673 678 0 815 +17 814 0 813 662 743 597 605 716 0 0 -17 600 0 656 6
35 652 597 662 670 0 663 -17 663 0 786 605 668 597 635 664 0 814 -17 605 0 786 7
40 663 602 814 716 0 743 +17 668 0 786 663 796 619 666 719 0 0 -17 666 0 665 682
 657 593 668 719 0 0 +17 740 0 786 737 605 607 816 694 0 0 +17 743 0 813 814 622
 602 815 715 0 816 +17 815 0 817 714 816 601 743 715 0 677 -17 816 0 817 815 610
 602 740 694 0 0 -15 817 212 0 816 818 0 17 610 0 817 816 714 607 626 744 0 819
 +17 714 0 817 610 815 623 677 711 0 0 +17 626 0 820 560 819 623 610 744 0 556 -
17 819 0 820 626 547 607 737 734 0 740 -15 820 214 0 560 821 0 17 547 0 820 819
 560 573 822 15 0 737 +17 737 0 786 592 740 573 819 734 0 0 +17 592 0 786 733 73
7 590 577 767 0 783 +17 577 0 823 822 784 573 592 767 0 547 -17 783 0 781 585 76
6 590 733 730 0 784 -17 784 0 823 577 558 590 585 760 0 0 -15 823 917 0 558 541
 0 17 558 0 823 784 822 582 550 559 0 0 -17 822 0 823 558 577 16 547 15 0 0 -14
 541 916 824 ?0 785 823 10 11 +0 0 0 785 545 81 1 824 966 59 541 0 0 710 825 826
 14 785 895 825 ?541 660 779 10 542 +0 0 541 660 545 13 545 80 0 0 0 0 0 0 14 53
9 14 539 227 827 ?683 0 813 10 828 +0 0 683 0 545 81 1 827 805 59 539 0 0 829 59
9 830 14 683 225 831 ?799 539 665 10 832 -0 0 799 539 545 50 828 235 0 539 832 5
42 0 +0 -.0182118 -.0055 1 0 0 0 0 -1 50 832 234 0 683 833 828 0 +.083 -.0182118
 0 0 0 1 1 0 0 51 542 907 0 785 828 11 0 +.1731886360825155 -.0182118 .000188636
08251574 0 1 0 .00981136391748426 0 0 1 50 833 233 0 799 834 832 0 +.166 -.01821
18 -.0055 1 0 0 0 0 -1 14 799 223 829 ?787 683 797 10 833 -0 0 787 683 545 50 83
4 232 0 793 835 833 0 +.1745 -.0182118 -.011 0 0 1 1 0 0 14 793 221 836 ?789 787
 791 10 834 -0 0 789 787 545 50 835 231 0 789 837 834 0 +.183 -.0182118 -.000500
000000000006 1 0 0 0 0 -1 14 789 219 838 ?782 793 566 10 835 +0 0 782 793 545 50
 837 230 0 782 839 835 0 +.083 -.0182118 .01 0 0 1 1 0 0 14 782 217 840 ?821 789
 781 10 837 +0 0 821 789 545 50 839 229 0 821 841 837 0 +-.017 -.0182118 -5e-4 -
1 0 0 0 0 1 14 821 215 842 ?818 782 820 10 839 +0 0 818 782 545 50 841 228 0 818
 843 839 0 +-.0085 -.0182118 -.011 1020425574104004e-31 0 -1 -1 0 -1020425574104
004e-31 14 818 213 844 ?674 821 817 10 841 +0 0 674 821 545 50 843 187 0 787 845
 841 0 +.083 0 -5e-4 0 -1 0 1 0 0 14 787 111 846 ?793 799 786 10 843 -0 0 793 79
9 545 50 845 2 0 674 847 843 0 +.083 -.0182118 -5e-4 0 -1 0 1 0 0 14 674 1 848 ?
849 818 555 10 845 +0 0 849 818 545 51 847 728 0 849 850 845 0 -.166 .1837206347
59588 -142366318899338e-32 0 -1 0 .00508 0 0 -1 14 849 704 851 ?660 674 802 10 8
47 +0 0 660 674 545 51 850 735 0 660 0 847 0 --1117111733966444e-33 .18372063475
9588 238524477946811e-32 0 -1 0 .00508 0 0 -1 14 660 599 852 ?785 849 656 10 850
 +0 0 785 849 545 81 1 852 799 59 660 0 0 693 851 853 81 1 693 798 59 678 0 0 71
8 852 854 81 1 851 800 59 849 0 0 852 831 855 82 3 853 10 0 2 81 1 831 801 59 68
3 0 0 851 829 856 82 3 855 10 1 2 81 1 829 804 59 799 0 0 831 827 857 82 3 856 1
0 2 2 82 3 857 10 5 2 81 1 718 797 59 716 0 0 690 693 858 82 3 854 10 11 1 81 1
 690 796 59 685 0 0 688 718 859 82 3 858 10 10 1 81 1 688 795 59 721 0 0 684 690
 860 82 3 859 10 9 1 82 3 860 10 8 1 15 802 695 0 639 849 0 17 639 0 802 644 596
 636 796 755 0 798 +17 596 0 802 639 649 593 682 680 0 796 -17 649 0 802 596 644
 646 675 804 0 682 -17 675 0 555 632 672 641 649 804 0 800 +17 632 0 555 700 675
 606 800 685 0 794 +17 700 0 555 571 632 627 792 691 0 790 +17 792 0 791 754 790
 606 700 691 0 0 -81 1 848 972 59 674 0 0 846 0 861 81 1 846 971 59 787 0 0 838
 848 862 82 3 861 11 6 2 81 1 838 970 59 789 0 0 840 846 863 82 3 862 11 5 2 81
 1 840 969 59 782 0 0 842 838 864 82 3 863 11 4 2 81 1 842 968 59 821 0 0 825 84
0 865 82 3 864 11 3 2 81 1 825 967 59 785 0 0 824 842 866 82 3 865 11 2 2 82 3 8
66 11 1 2 81 1 844 317 59 818 0 0 836 867 868 81 1 836 315 59 793 0 0 713 844 86
9 81 1 867 321 59 3 0 536 844 651 870 82 3 868 6 6 2 81 1 536 973 325 3 867 6 0
 0 871 81 1 651 783 59 640 0 0 867 653 872 82 3 870 6 0 3 82 3 872 10 0 0 98 6 8
71 80 97 114 116 32 49 81 1 713 304 59 711 0 0 739 836 873 82 3 869 6 4 2 81 1 7
39 303 59 694 0 0 699 713 874 82 3 873 6 17 1 81 1 699 300 59 691 0 0 725 739 87
5 82 3 874 6 16 1 81 1 725 299 59 723 0 0 746 699 876 82 3 875 6 13 1 81 1 746 2
92 59 744 0 0 742 725 877 82 3 876 6 12 1 81 1 742 291 59 715 0 0 749 746 878 82
 3 877 6 5 1 81 1 749 290 59 747 0 0 753 742 879 82 3 878 6 4 1 81 1 753 289 59
 751 0 0 625 749 880 82 3 879 6 3 1 81 1 625 282 59 623 0 0 609 753 881 82 3 880
 6 2 1 81 1 609 281 59 607 0 0 621 625 882 82 3 881 6 11 0 81 1 621 280 59 601 0
 0 604 609 883 82 3 882 6 10 0 81 1 604 279 59 602 0 0 629 621 884 82 3 883 6 9
 0 81 1 629 278 59 627 0 0 613 604 885 82 3 884 6 8 0 81 1 613 277 59 611 0 0 63
1 629 886 82 3 885 6 7 0 81 1 631 276 59 606 0 0 617 613 887 82 3 886 6 6 0 81 1
 617 275 59 615 0 0 0 631 888 82 3 887 6 5 0 82 3 888 6 4 0 81 1 599 806 59 597
 0 0 827 634 889 82 3 830 10 6 2 81 1 634 807 59 619 0 0 599 595 890 82 3 889 10
 4 0 81 1 595 808 59 593 0 0 634 638 891 82 3 890 10 5 0 81 1 638 809 59 636 0 0
 595 759 892 82 3 891 10 6 0 81 1 759 810 59 664 0 0 638 757 893 82 3 892 10 7 0
 81 1 757 811 59 755 0 0 759 552 894 82 3 893 10 12 1 81 1 552 944 59 573 0 0 75
7 549 895 82 3 894 10 13 1 82 3 895 11 0 0 81 1 710 965 59 708 0 0 736 824 896 8
2 3 826 11 0 2 81 1 736 964 59 734 0 0 703 710 897 82 3 896 11 13 1 81 1 703 963
 59 701 0 0 729 736 898 82 3 897 11 12 1 81 1 729 962 59 727 0 0 706 703 899 82
 3 898 11 11 1 81 1 706 961 59 704 0 0 732 729 900 82 3 899 11 10 1 81 1 732 960
 59 730 0 0 776 706 901 82 3 900 11 9 1 82 3 901 11 8 1 17 560 0 820 547 626 16
 556 708 0 822 +17 556 0 555 677 550 623 560 708 0 714 -17 677 0 555 673 556 601
 714 711 0 0 -81 1 643 786 59 641 0 0 648 811 902 81 1 669 788 59 658 0 0 811 80
6 903 82 3 812 10 0 1 81 1 806 789 59 680 0 0 669 803 904 82 3 903 10 1 1 82 3 9
04 10 2 1 81 1 648 785 59 646 0 0 653 643 905 82 3 902 10 3 0 82 3 905 10 2 0 81
 1 808 792 59 804 0 0 679 687 906 81 1 679 791 59 661 0 0 803 808 907 81 1 687 7
93 59 719 0 0 808 684 908 82 3 906 10 5 1 82 3 908 10 6 1 82 3 907 10 4 1 82 3 8
07 10 3 1 81 1 772 958 59 770 0 0 774 776 909 82 3 777 11 7 1 81 1 774 957 59 57
0 0 0 765 772 910 82 3 909 11 6 1 81 1 765 956 59 763 0 0 775 774 911 82 3 910 1
1 5 1 81 1 775 955 59 559 0 0 769 765 912 82 3 911 11 4 1 81 1 769 954 59 767 0
 0 762 775 913 82 3 912 11 3 1 81 1 762 953 59 760 0 0 546 769 914 82 3 913 11 2
 1 81 1 546 952 59 15 0 0 561 762 915 82 3 914 11 1 1 82 3 915 11 0 1 82 3 689 1
0 7 1 82 3 655 10 1 0 81 1 553 946 59 590 0 0 549 584 916 81 1 584 947 59 582 0
 0 553 588 917 82 3 916 11 2 0 81 1 588 948 59 586 0 0 584 580 918 82 3 917 11 3
 0 81 1 580 949 59 578 0 0 588 564 919 82 3 918 11 4 0 81 1 564 950 59 563 0 0 5
80 561 920 82 3 919 11 5 0 82 3 920 11 6 0 82 3 565 11 7 0 82 3 554 11 1 0 19 54
0 245 0 3 0 14 10 S0 74 20 538 3 0 0 848 536 6 0 0 0 0 0 0 0 0 0 0 0 0 0 0 0 0 0
 84 6 537 Part 11 0 
